SplineFontDB: 3.0
FontName: Dairy
FullName: Dairy
FamilyName: Dairy
Weight: Regular
Copyright: Copyright (c) 2019, Mike Kasprzak,,,
UComments: "2019-5-24: Created with FontForge (http://fontforge.org)"
Version: 001.000
ItalicAngle: 0
UnderlinePosition: -110
UnderlineWidth: 55
Ascent: 900
Descent: 200
InvalidEm: 0
LayerCount: 2
Layer: 0 0 "Back" 1
Layer: 1 0 "Fore" 0
XUID: [1021 368 -782376873 13616642]
OS2Version: 0
OS2_WeightWidthSlopeOnly: 0
OS2_UseTypoMetrics: 1
CreationTime: 1558671128
ModificationTime: 1559061236
OS2TypoAscent: 0
OS2TypoAOffset: 1
OS2TypoDescent: 0
OS2TypoDOffset: 1
OS2TypoLinegap: 0
OS2WinAscent: 0
OS2WinAOffset: 1
OS2WinDescent: 0
OS2WinDOffset: 1
HheadAscent: 0
HheadAOffset: 1
HheadDescent: 0
HheadDOffset: 1
OS2Vendor: 'PfEd'
Lookup: 258 0 0 "O_Z" { "O_Z" [165,16,0] "O_Z-1" [165,16,0] } []
MarkAttachClasses: 1
DEI: 91125
Encoding: ISO8859-1
UnicodeInterp: none
NameList: AGL For New Fonts
DisplaySize: -48
AntiAlias: 1
FitToEm: 0
WinInfo: 18 18 9
BeginPrivate: 0
EndPrivate
Grid
900 1450 m 0
 900 -750 l 1024
850 1450 m 0
 850 -750 l 1028
800 1450 m 0
 800 -750 l 1024
750 1450 m 0
 750 -750 l 1024
-1000 850 m 0
 2200 850 l 1024
-1000 800 m 0
 2200 800 l 1024
-1000 750 m 0
 2000 750 l 1024
-1000 700 m 0
 2000 700 l 1024
-1000 650 m 0
 2000 650 l 1024
-1000 600 m 0
 2000 600 l 1024
-1000 550 m 0
 2000 550 l 1024
-1000 500 m 0
 2000 500 l 1024
-1000 450 m 0
 2000 450 l 1024
-1000 400 m 0
 2000 400 l 1024
-1000 350 m 0
 2000 350 l 1024
-1000 300 m 0
 2000 300 l 1024
-1000 250 m 0
 2000 250 l 1024
-1000 200 m 0
 2000 200 l 1024
-1000 150 m 0
 2000 150 l 1024
-1000 100 m 0
 2000 100 l 1024
-1000 50 m 1
 2000 50.9999984801 l 1025
700 1300 m 0
 700 -700 l 1024
650 1300 m 0
 650 -700 l 1024
600 1300 m 0
 600 -700 l 1024
550 1300 m 0
 550 -700 l 1024
500 1300 m 0
 500 -700 l 1024
450 1300 m 0
 450 -700 l 1024
400 1300 m 0
 400 -700 l 1024
350 1300 m 0
 350 -700 l 1024
300 1300 m 0
 300 -700 l 1024
250 1300 m 0
 250 -700 l 1024
200 1300 m 0

StartChar: L
Encoding: 76 76 0
Width: 650
VWidth: 0
Flags: HW
LayerCount: 2
Fore
SplineSet
0 900 m 1
 300 900 l 1
 300 350 l 0
 300 325 325 300 350 300 c 0
 600 300 l 25
 600 0 l 1
 350 0 l 0
 150 0 0 150 0 350 c 4
 0 900 l 1
EndSplineSet
EndChar

StartChar: D
Encoding: 68 68 1
Width: 825
VWidth: 0
Flags: HW
LayerCount: 2
Fore
SplineSet
325 600 m 5
 325 300 l 5
 325 300 350 300 350 300 c 1
 500 300 500 600 350 600 c 1
 325 600 l 5
0 900 m 25
 300 900 l 1
 400 900 l 1
 900 900 900 0 400 0 c 2
 300 0 l 1
 0 0 l 25
 0 900 l 25
EndSplineSet
EndChar

StartChar: o
Encoding: 111 111 2
Width: 750
VWidth: 0
Flags: W
LayerCount: 2
Fore
SplineSet
350 300 m 1
 325 300 300 325 300 350 c 1
 300 375 325 400 350 400 c 1
 375 400 400 375 400 350 c 1
 400 325 375 300 350 300 c 1
350 0 m 0
 550 0 700 150 700 350 c 0
 700 550 550 700 350 700 c 0
 150 700 0 549.997070312 0 350 c 0
 0 150 150 0 350 0 c 0
EndSplineSet
EndChar

StartChar: a
Encoding: 97 97 3
Width: 750
VWidth: 0
Flags: HW
LayerCount: 2
Fore
SplineSet
400 300 m 1
 350 300 l 1
 325 300 300 325 300 350 c 1
 300 375 325 400 350 400 c 1
 375 400 400 375 400 350 c 1
 400 300 l 1
700 0 m 1
 700 350 l 1
 700 550 550 700 350 700 c 0
 150 700 0 549.997070312 0 350 c 0
 0 150 150 0 350 0 c 1
 700 0 l 1
EndSplineSet
EndChar

StartChar: d
Encoding: 100 100 4
Width: 751
VWidth: 0
Flags: HW
LayerCount: 2
Fore
SplineSet
400 400 m 1
 400 350 l 1
 400 325 375 300 350 300 c 1
 325 300 300 325 300 350 c 1
 300 375 325 400 350 400 c 1
 400 400 l 1
400 700 m 1
 350 700 l 1
 150 700 0 549.997070312 0 350 c 0
 0 150 150 0 350 0 c 0
 550 0 700 150 700 350 c 1
 701 850 l 1
 400 850 l 1
 400 700 l 1
EndSplineSet
EndChar

StartChar: u
Encoding: 117 117 5
Width: 750
VWidth: 0
Flags: HW
LayerCount: 2
Fore
SplineSet
700 350 m 0
 700 150 550 0 350 0 c 0
 150 0 0 150 0 350 c 0
 0 700 l 0
 302 700 l 0
 300 350 l 1
 300 325 325 300 350 300 c 1
 375 300 400 325 400 350 c 1
 400 700 l 25
 698 700 l 17
 700 350 l 0
EndSplineSet
EndChar

StartChar: e
Encoding: 101 101 6
Width: 725
VWidth: 0
Flags: HW
LayerCount: 2
Fore
SplineSet
350 300 m 5
 325 300 300 325 300 350 c 1
 300 375 325 400 350 400 c 1
 375 400 400 375 400 350 c 5
 350 300 l 5
700 300 m 1
 700 350 l 0
 700 550 550 700 350 700 c 0
 150 700 0 549.997070312 0 350 c 0
 0 150 150 0 350 0 c 0
 700 0 l 13
 400 300 l 25
 700 300 l 1
EndSplineSet
EndChar

StartChar: e
Encoding: 101 101 7
Width: 750
VWidth: 0
Flags: HW
LayerCount: 2
Fore
SplineSet
400 350 m 5
 300 350 l 4
 300 375 l 4
 300 400 325 425 350 425 c 4
 375 425 400 400 400 375 c 4
 400 350 l 5
630.302649133 134.848675434 m 1
 400 250 l 1
 686.718930497 250 l 1
 695.393592114 281.439094601 700 314.951812653 700 350 c 0
 700 550 550 700 350 700 c 0
 150 700 0 549.997070312 0 350 c 0
 0 150 150 0 350 0 c 0
 467.40886039 0 567.586670157 51.6931518676 630.302649133 134.848675434 c 1
EndSplineSet
EndChar

StartChar: m
Encoding: 109 109 8
Width: 1150
VWidth: 0
Flags: HW
LayerCount: 2
Fore
SplineSet
0 350 m 2
 0 550 150 700 350 700 c 0
 425.615151713 700 494.083239465 678.558808118 550 641.08068761 c 1
 605.916760535 678.558808118 674.384848287 700 750 700 c 0
 950 700 1100 550 1100 350 c 2
 1100 0 l 1
 798 0 l 1
 800 350 l 2
 800 375 775 400 750 400 c 0
 725 400 700 375 700 350 c 2
 700 0 l 1
 398 0 l 1
 398 0 l 1
 400 350 l 2
 400 375 375 400 350 400 c 0
 325 400 300 375 300 350 c 2
 300 0 l 1
 2 0 l 1
 0 350 l 2
EndSplineSet
EndChar

StartChar: r
Encoding: 114 114 9
Width: 500
VWidth: 0
Flags: HW
LayerCount: 2
Fore
SplineSet
350 400 m 1
 325 400 300 375 300 350 c 1
 300 0 l 25
 2 0 l 17
 0 350 l 0
 0 550 150 700 350 700 c 0
 452 700 348 700 450 700 c 1
 450 400 l 25
 350 400 l 1
EndSplineSet
EndChar

StartChar: n
Encoding: 110 110 10
Width: 750
VWidth: 0
Flags: HW
LayerCount: 2
Fore
SplineSet
0 350 m 4
 0 550 150 700 350 700 c 4
 550 700 700 550 700 350 c 4
 700 0 l 4
 398 0 l 4
 400 350 l 5
 400 375 375 400 350 400 c 5
 325 400 300 375 300 350 c 5
 300 0 l 29
 2 0 l 21
 0 350 l 4
EndSplineSet
EndChar

StartChar: zero
Encoding: 48 48 12
Width: 950
VWidth: 0
Flags: HW
LayerCount: 2
Fore
SplineSet
450 350 m 0
 325 350 325 550 450 550 c 0
 575 550 575 350 450 350 c 0
450 0 m 1
 1050 0 1050 900 450 900 c 0
 -150 900 -150 0 450 0 c 1
EndSplineSet
EndChar

StartChar: O
Encoding: 79 79 13
Width: 950
VWidth: 0
Flags: HW
HStem: 0 350<392.404 507.596> 550 350<392.404 507.596>
LayerCount: 2
Fore
SplineSet
450 300 m 4
 275 300 275 600 450 600 c 4
 625 600 625 300 450 300 c 4
450 0 m 1
 1050 0 1050 900 450 900 c 0
 -150 900 -150 0 450 0 c 1
EndSplineSet
EndChar

StartChar: one
Encoding: 49 49 14
Width: 500
VWidth: 0
Flags: HW
LayerCount: 2
Fore
SplineSet
0 600 m 1
 150 900 l 1
 450 900 l 1
 450 0 l 25
 150 0 l 1
 150 600 l 1
 0 600 l 1
EndSplineSet
EndChar

StartChar: eight
Encoding: 56 56 15
Width: 750
VWidth: 0
Flags: HW
LayerCount: 2
Fore
SplineSet
350 0 m 0
 550 0 700 100 700 300 c 0
 700 358.578947142 687.131901069 408.579161664 663.90836883 450.000643565 c 1
 687.131901069 491.422051856 700 541.421910948 700 600 c 0
 700 800 550 900 350 900 c 0
 150 900 0 800 0 600 c 0
 0 541.421052858 12.8680989312 491.420838336 36.0916311698 449.999356435 c 1
 12.8680989312 408.577948144 4.4408920985e-14 358.578089052 0 300 c 0
 0 100 150 0 350 0 c 0
350 250 m 0
 325 250 300 275 300 300 c 0
 300 300.725161109 300.021034345 301.450322217 300.062492904 302.174873194 c 5
 300 326 331.970703125 350 349 350 c 4
 366.029296875 350 400 328 399.937503777 302.17493119 c 5
 399.978964532 301.450360914 400 300.725180457 400 300 c 0
 400 275 375 250 350 250 c 0
350 650 m 0
 375 650 400 625 400 600 c 0
 400 599.274838891 399.978965655 598.549677783 399.937507096 597.825126806 c 5
 400 571 369.029296875 550 352 550 c 0
 334.970703125 550 300 566 300.062496223 597.82506881 c 5
 300.021035468 598.549639086 300 599.274819543 300 600 c 0
 300 625 325 650 350 650 c 0
EndSplineSet
EndChar

StartChar: p
Encoding: 112 112 16
Width: 750
VWidth: 0
Flags: HW
LayerCount: 2
Fore
SplineSet
300 300 m 1
 300 350 l 1
 300 375 325 400 350 400 c 1
 375 400 400 375 400 350 c 1
 400 325 375 300 350 300 c 1
 300 300 l 1
300 0 m 1
 350 0 l 1
 550 0 700 150.002929688 700 350 c 0
 700 550 550 700 350 700 c 0
 150 700 0 550 0 350 c 1
 0 -150 l 1
 300 -150 l 1
 300 0 l 1
EndSplineSet
EndChar

StartChar: q
Encoding: 113 113 17
Width: 750
VWidth: 0
Flags: HW
LayerCount: 2
Fore
SplineSet
400 300 m 1
 400 350 l 1
 400 375 375 400 350 400 c 1
 325 400 300 375 300 350 c 1
 300 325 325 300 350 300 c 1
 400 300 l 1
400 0 m 5
 350 0 l 1
 150 0 0 150.002929688 0 350 c 0
 0 550 150 700 350 700 c 0
 550 700 700 550 700 350 c 1
 700 -150 l 1
 400 -150 l 1
 400 0 l 5
EndSplineSet
EndChar

StartChar: b
Encoding: 98 98 18
Width: 751
VWidth: 0
Flags: HW
LayerCount: 2
Fore
SplineSet
301 400 m 5
 301 350 l 5
 301 325 326 300 351 300 c 5
 376 300 401 325 401 350 c 5
 401 375 376 400 351 400 c 5
 301 400 l 5
301 700 m 5
 351 700 l 5
 551 700 701 549.997070312 701 350 c 4
 701 150 551 0 351 0 c 4
 151 0 1 150 1 350 c 5
 0 850 l 5
 301 850 l 5
 301 700 l 5
EndSplineSet
EndChar

StartChar: c
Encoding: 99 99 19
Width: 750
VWidth: 0
Flags: HW
LayerCount: 2
Fore
SplineSet
654.930061547 172.534969226 m 1
 300 350 l 1
 700 350 l 1
 700 550 550 700 350 700 c 0
 150 700 0 549.997070312 0 350 c 0
 0 150 150 0 350 0 c 0
 484.258728989 0 595.985700091 67.5952736615 654.930061547 172.534969226 c 1
EndSplineSet
EndChar

StartChar: h
Encoding: 104 104 20
Width: 750
VWidth: 0
Flags: HW
LayerCount: 2
Fore
SplineSet
401 350 m 21
 401 375 376 400 351 400 c 5
 301 400 l 5
 301 400 l 5
 300 0 l 1
 0 0 l 1
 0 0 l 17
 0 850 l 1
 301 850 l 1
 301 700 l 5
 351 700 l 5
 551 700 700 550 700 350 c 4
 700 0 l 9
 400 0 l 1
 401 350 l 21
EndSplineSet
EndChar

StartChar: j
Encoding: 106 106 21
Width: 501
VWidth: 0
Flags: HW
LayerCount: 2
Fore
SplineSet
400 900 m 1
 450 850 l 1
 450 750 l 25
 150 750 l 25
 150 900 l 1
 400 900 l 1
150 700 m 1
 150 200 l 1
 150 200 l 1
 150 175 125 150 100 150 c 1
 0 150 l 1
 0 -150 l 1
 100 -150 l 0
 300 -150 450 0 450 200 c 1
 450 700 l 1
 150 700 l 1
 150 700 l 1
EndSplineSet
EndChar

StartChar: J
Encoding: 74 74 22
Width: 550
VWidth: 0
Flags: HW
LayerCount: 2
Fore
SplineSet
200 900 m 1
 200 350 l 5
 200 325 175 300 150 300 c 1
 0 300 l 1
 0 0 l 1
 150 0 l 0
 350 0 500 150 500 350 c 1
 500 900 l 1
 199 901 l 1
 200 900 l 1
EndSplineSet
EndChar

StartChar: l
Encoding: 108 108 23
Width: 350
VWidth: 0
Flags: HW
LayerCount: 2
Fore
SplineSet
0 850 m 25
 300 850 l 25
 300 0 l 25
 0 0 l 25
 0 850 l 25
EndSplineSet
EndChar

StartChar: w
Encoding: 119 119 24
Width: 1100
VWidth: 0
Flags: HW
LayerCount: 2
Fore
SplineSet
1050 350 m 2
 1050 150 900 0 700 0 c 0
 624.384765625 0 580.916992188 11.44140625 525 48.9189453125 c 1
 469.083007812 11.44140625 425.615234375 0 350 0 c 0
 150 0 0 150 0 350 c 2
 0 700 l 1
 302 700 l 1
 300 350 l 2
 300 325 325 300 350 300 c 0
 375 300 400 325 400 350 c 2
 400 700 l 1
 652 700 l 1
 652 700 l 1
 650 350 l 2
 650 325 675 300 700 300 c 0
 725 300 750 325 750 350 c 2
 750 700 l 1
 1048 700 l 1
 1050 350 l 2
EndSplineSet
EndChar

StartChar: t
Encoding: 116 116 25
Width: 550
VWidth: 0
Flags: HW
LayerCount: 2
Fore
SplineSet
300 850 m 1
 300 850 l 1
 0 850 l 1
 0 350 l 1
 0 150 150 0 350 0 c 0
 500 0 l 1
 500 300 l 1
 350 300 l 1
 325 300 300 325 300 350 c 1
 300 350 l 1
 300 450 l 1
 500 450 l 1
 500 700 l 1
 300 700 l 1
 300 850 l 1
EndSplineSet
EndChar

StartChar: v
Encoding: 118 118 26
Width: 850
VWidth: 0
Flags: HW
LayerCount: 2
Fore
SplineSet
450 0 m 1
 350 0 l 1
 0 700 l 1
 300 700 l 1
 400 500 l 1
 500 700 l 1
 800 700 l 1
 450 0 l 1
EndSplineSet
EndChar

StartChar: g
Encoding: 103 103 27
Width: 750
VWidth: 0
Flags: HW
LayerCount: 2
Fore
SplineSet
400 300 m 1
 400 350 l 1
 400 375 375 400 350 400 c 1
 325 400 300 375 300 350 c 1
 300 325 325 300 350 300 c 1
 400 300 l 1
275 -150 m 5
 350 0 l 1
 150 0 0 150.002929688 0 350 c 0
 0 550 150 700 350 700 c 0
 550 700 700 550 700 350 c 1
 700 150 l 1
 550 -150 l 1
 275 -150 l 5
EndSplineSet
EndChar

StartChar: y
Encoding: 121 121 28
Width: 850
VWidth: 0
Flags: HW
LayerCount: 2
Fore
SplineSet
75 -150 m 1
 250 200 l 1
 0 700 l 1
 300 700 l 1
 400 500 l 1
 500 700 l 1
 800 700 l 1
 375 -150 l 1
 75 -150 l 1
EndSplineSet
EndChar

StartChar: i
Encoding: 105 105 29
Width: 348
VWidth: 0
Flags: HW
LayerCount: 2
Fore
SplineSet
300 850 m 0
 300 750 l 1
 0 750 l 25
 0 900 l 25
 250 900 l 4
 275 900 300 875 300 850 c 0
0 700 m 25
 300 700 l 25
 300 0 l 1
 0 0 l 1
 0 700 l 25
EndSplineSet
EndChar

StartChar: k
Encoding: 107 107 30
Width: 800
VWidth: 0
Flags: HW
LayerCount: 2
Fore
SplineSet
300 0 m 1
 0 0 l 1
 0 850 l 1
 300 850 l 1
 300 450 l 1
 425 700 l 5
 700 700 l 1
 550 400 l 1
 750 0 l 1
 450 0 l 1
 300 300 l 1
 300 0 l 1
EndSplineSet
EndChar

StartChar: K
Encoding: 75 75 31
Width: 800
VWidth: 0
Flags: HW
LayerCount: 2
Fore
SplineSet
300 0 m 1
 0 0 l 1
 0 900 l 1
 300 900 l 1
 300 600 l 1
 450 900 l 1
 750 900 l 1
 525 450 l 1
 750 0 l 1
 450 0 l 1
 300 300 l 1
 300 0 l 1
EndSplineSet
EndChar

StartChar: s
Encoding: 115 115 32
Width: 747
VWidth: 0
Flags: HW
LayerCount: 2
Fore
SplineSet
3.03125 398.4921875 m 1
 300.015625 250 l 1
 13.296875 250 l 1
 54.123046875 102.034179688 185.063476562 0 350.015625 0 c 0
 533.491210938 0 674.887695312 126.237304688 697 301.5078125 c 1
 400.015625 450 l 1
 686.734375 450 l 1
 645.907226562 597.965820312 514.966796875 700 350.015625 700 c 0
 166.540039062 700 25.1435546875 573.759765625 3.03125 398.4921875 c 1
EndSplineSet
EndChar

StartChar: z
Encoding: 122 122 33
Width: 700
VWidth: 0
Flags: HW
LayerCount: 2
Fore
SplineSet
0 700 m 1
 0 400 l 1
 200 400 l 1
 0 0 l 1
 0 0 l 1
 650 0 l 1
 650 300 l 1
 450 300 l 1
 650 700 l 1
 0 700 l 1
EndSplineSet
EndChar

StartChar: Z
Encoding: 90 90 34
Width: 800
VWidth: 0
Flags: W
LayerCount: 2
Fore
SplineSet
0 900 m 1
 0 600 l 1
 300 600 l 1
 0 0 l 1
 750 0 l 1
 750 300 l 1
 450 300 l 1
 750 900 l 1
 0 900 l 1
EndSplineSet
EndChar

StartChar: X
Encoding: 88 88 35
Width: 900
VWidth: 0
Flags: HW
LayerCount: 2
Fore
SplineSet
550 0 m 1
 425 250 l 5
 300 0 l 1
 0 0 l 1
 225 450 l 1
 0 900 l 1
 300 900 l 1
 425 650 l 1
 550 900 l 1
 850 900 l 1
 625 450 l 1
 850 0 l 1
 550 0 l 1
EndSplineSet
EndChar

StartChar: P
Encoding: 80 80 36
Width: 750
VWidth: 0
Flags: HW
LayerCount: 2
Fore
SplineSet
300 475 m 5
 300 625 l 5
 325 625 l 5
 375 625 400 600 400 550 c 5
 400 500 375 475 325 475 c 5
 300 475 l 5
300 200 m 1
 350 200 l 1
 550 200 700 350.002929688 700 550 c 0
 700 750 550 900 350 900 c 1
 0 900 l 1
 0 0 l 1
 300 0 l 1
 300 200 l 1
EndSplineSet
EndChar

StartChar: S
Encoding: 83 83 37
Width: 750
VWidth: 0
Flags: HW
LayerCount: 2
Fore
SplineSet
400 0 m 0
 0 0 l 0
 0 300 l 0
 400 300 l 4
 400 325 375 350 350 350 c 0
 275 350 l 0
 125 350 0 475 0 625 c 0
 0 775 100 900 300 900 c 1
 700 900 l 0
 700 600 l 0
 300 600 l 0
 300 575 325 550 350 550 c 0
 425 550 l 0
 575 550 700 425 700 275 c 0
 700 124.99609375 600 0 400 0 c 0
EndSplineSet
EndChar

StartChar: uni0080
Encoding: 128 128 38
Width: 675
VWidth: 0
Flags: HW
LayerCount: 2
Fore
SplineSet
650 250 m 1
 650 125 525 0 400 0 c 0
 250 0 l 0
 125 0 7.65404249467e-15 125 0 250 c 0
 300 250 l 0
 330 250 350 272 350 300 c 0
 350 300 l 0
 154 300 l 2
 79 300 0 375 0 450 c 0
 0 450 l 1
 7.65404249467e-15 575 125 700 250 700 c 1
 400 700 l 0
 525 700 650 575 650 450 c 0
 350 450 l 0
 322.833984375 450 300 428 300 400 c 0
 300 400 l 0
 500 400 l 6
 575 400 650 325 650 250 c 0
 650 250 l 1
EndSplineSet
EndChar

StartChar: uni0081
Encoding: 129 129 39
Width: 675
VWidth: 0
Flags: HW
LayerCount: 2
Fore
SplineSet
300 0 m 0
 150 0 0 150 0 300 c 0
 200 300 l 17
 0 500 l 0
 0 650 150 800 300 800 c 0
 400 800 l 0
 550 800 700 650 700 500 c 0
 500 500 l 17
 700 300 l 0
 700 150 550 0 400 0 c 0
 300 0 l 0
EndSplineSet
EndChar

StartChar: uni0082
Encoding: 130 130 40
Width: 725
VWidth: 0
Flags: HW
LayerCount: 2
Fore
SplineSet
300 0 m 0
 150 0 0 150 0 300 c 0
 200 300 l 17
 0 400 l 0
 0 550 150 700 300 700 c 0
 400 700 l 0
 550 700 700 550 700 400 c 0
 500 400 l 17
 700 300 l 0
 700 150 550 0 400 0 c 0
 300 0 l 0
EndSplineSet
EndChar

StartChar: uni0083
Encoding: 131 131 41
Width: 725
VWidth: 0
Flags: HW
LayerCount: 2
Fore
SplineSet
3.01548058328 398.492259708 m 1
 300 250 l 1
 13.2810695033 250 l 1
 54.1077503162 102.034126865 185.048187347 0 350 0 c 0
 533.475789738 9.94759830064e-14 674.872372701 126.237620325 696.984591943 301.507704028 c 1
 400 450 l 1
 686.718930497 450 l 1
 645.892249684 597.965873135 514.951812653 700 350 700 c 0
 166.524410857 700 25.1279364775 573.760190133 3.01548058328 398.492259708 c 1
EndSplineSet
EndChar

StartChar: uni0084
Encoding: 132 132 42
Width: 725
VWidth: 0
Flags: HW
LayerCount: 2
Fore
SplineSet
0 350 m 1
 300 200 l 1
 31.2400596272 200 l 1
 85.2398369982 79.5372297514 204.363713541 0 350 0 c 0
 550 0 700 150 700 350 c 1
 400 500 l 1
 668.759940373 500 l 1
 614.760163002 620.462770249 495.636286459 700 350 700 c 0
 150 700 0 549.997070312 0 350 c 1
EndSplineSet
EndChar

StartChar: uni0085
Encoding: 133 133 43
Width: 725
VWidth: 0
Flags: HW
LayerCount: 2
Fore
SplineSet
22.2012409703 477.79875903 m 1
 300 200 l 1
 31.2400596272 200 l 1
 85.2398369982 79.5372297514 204.363713541 0 350 0 c 0
 504.407009485 -4.26325641456e-14 629.012113248 89.4057171682 677.799079892 222.200920108 c 1
 400 500 l 1
 668.759940373 500 l 1
 614.760163002 620.462770249 495.636286459 700 350 700 c 0
 195.593329015 700 70.9884330851 610.592928634 22.2012409703 477.79875903 c 1
EndSplineSet
EndChar

StartChar: uni0086
Encoding: 134 134 44
Width: 725
VWidth: 0
Flags: HW
LayerCount: 2
Fore
SplineSet
22.2012409703 477.79875903 m 1
 250 250 l 1
 13.2810695033 250 l 1
 54.1077503162 102.034126865 185.048187347 0 350 0 c 0
 504.407009485 -4.26325641456e-14 629.012113248 89.4057171682 677.799079892 222.200920108 c 1
 450 450 l 1
 686.718930497 450 l 1
 645.892249684 597.965873135 514.951812653 700 350 700 c 0
 195.593329015 700 70.9884330851 610.592928634 22.2012409703 477.79875903 c 1
EndSplineSet
EndChar

StartChar: uni0087
Encoding: 135 135 45
Width: 725
VWidth: 0
Flags: HW
LayerCount: 2
Fore
SplineSet
32.2357158513 502.199055843 m 1
 134.448890328 442.575770364 200 332.213070127 200 200 c 1
 31.2400596272 200 l 1
 85.2398369982 79.5372297514 204.363713541 0 350 0 c 0
 494.748134968 4.26325641456e-14 613.306241715 78.5700846623 667.764742844 197.80067659 c 1
 565.551305785 257.423899458 500 367.786732098 500 500 c 1
 668.759940373 500 l 1
 614.760163002 620.462770249 495.636286459 700 350 700 c 0
 205.252271427 700 86.6944240136 621.42882196 32.2357158513 502.199055843 c 1
EndSplineSet
EndChar

StartChar: uni0088
Encoding: 136 136 46
Width: 725
VWidth: 0
Flags: HW
LayerCount: 2
Fore
SplineSet
12.0868329944 445.559534902 m 1
 98.3083586901 425.147527884 175 337.573763942 175 250 c 1
 13.2810695033 250 l 1
 54.1077503162 102.034126865 185.048187347 0 350 0 c 0
 516.596790312 -4.26325641456e-14 648.500467446 104.079339533 687.913418389 254.440405586 c 1
 601.691790375 274.852301899 525 362.426150949 525 450 c 1
 686.718930497 450 l 1
 645.892249684 597.965873135 514.951812653 700 350 700 c 0
 183.403563882 700 51.5000934225 595.919070231 12.0868329944 445.559534902 c 1
EndSplineSet
EndChar

StartChar: uni0089
Encoding: 137 137 47
Width: 725
VWidth: 0
Flags: HW
LayerCount: 2
Fore
SplineSet
682.890891585 237.0860806 m 1
 639.266106243 353.046245913 518.986694761 450 400 450 c 2
 686.718930497 450 l 1
 645.892249684 597.965873135 514.951812653 700 350 700 c 0
 189.891890244 700 61.827039 603.868346929 17.109301776 462.913405423 c 1
 60.734249171 346.953467598 181.013481036 250 300 250 c 2
 13.2810695033 250 l 1
 54.1077503162 102.034126865 185.048187347 0 350 0 c 0
 510.108340528 1.42108547152e-14 638.173330172 96.1300526496 682.890891585 237.0860806 c 1
EndSplineSet
EndChar

StartChar: uni008C
Encoding: 140 140 48
Width: 725
VWidth: 0
Flags: HW
LayerCount: 2
Fore
SplineSet
350 300 m 0
 325 300 300 325 300 350 c 0
 300 375 325 400 350 400 c 0
 375 400 400 375 400 350 c 0
 400 325 375 300 350 300 c 0
696.791280536 300 m 1
 698.9097722 316.26194811 700 332.949269422 700 350 c 0
 700 550 550 700 350 700 c 0
 150 700 0 549.997070312 0 350 c 0
 0 150 150 0 350 0 c 0
 450 0 537.5 37.5 600 100 c 1
 400 300 l 1
 696.791280536 300 l 1
EndSplineSet
EndChar

StartChar: uni008D
Encoding: 141 141 49
Width: 725
VWidth: 0
Flags: HW
LayerCount: 2
Fore
SplineSet
350 300 m 0
 325 300 300 325 300 350 c 0
 300 375 325 400 350 400 c 0
 375 400 400 375 400 350 c 0
 400 325 375 300 350 300 c 0
615.893957236 117.053021382 m 1
 350 250 l 1
 686.718930497 250 l 1
 695.393592114 281.439094601 700 314.951812653 700 350 c 0
 700 550 550 700 350 700 c 0
 150 700 0 549.997070312 0 350 c 0
 0 150 150 0 350 0 c 0
 458.790389243 0 552.786592496 44.3825579683 615.893957236 117.053021382 c 1
EndSplineSet
EndChar

StartChar: uni008E
Encoding: 142 142 50
Width: 725
VWidth: 0
Flags: HW
LayerCount: 2
Fore
SplineSet
350 300 m 0
 325 300 300 325 300 350 c 0
 300 375 325 400 350 400 c 0
 375 400 400 375 400 350 c 0
 400 325 375 300 350 300 c 0
573.663492996 76.3365070043 m 1
 400 250 l 1
 686.718930497 250 l 1
 695.393592114 281.439094601 700 314.951812653 700 350 c 0
 700 550 550 700 350 700 c 0
 150 700 0 549.997070312 0 350 c 0
 0 150 150 0 350 0 c 0
 436.650807743 0 513.916162383 28.1563593095 573.663492996 76.3365070043 c 1
EndSplineSet
EndChar

StartChar: f
Encoding: 102 102 51
Width: 550
VWidth: 0
Flags: HW
LayerCount: 2
Fore
SplineSet
300 0 m 1
 300 0 l 1
 0 0 l 1
 0 500 l 1
 0 700 150 850 350 850 c 0
 500 850 l 1
 500 550 l 1
 350 550 l 1
 325 550 300 525 300 500 c 1
 300 500 l 1
 500 500 l 1
 500 300 l 5
 300 300 l 5
 300 0 l 1
EndSplineSet
EndChar

StartChar: uni008F
Encoding: 143 143 52
Width: 725
VWidth: 0
Flags: HW
LayerCount: 2
Fore
SplineSet
350 300 m 0
 325 300 300 325 300 350 c 0
 300 375 325 400 350 400 c 0
 375 400 400 375 400 350 c 0
 400 325 375 300 350 300 c 0
630.302649133 134.848675434 m 1
 400 250 l 1
 686.718930497 250 l 1
 695.393592114 281.439094601 700 314.951812653 700 350 c 0
 700 550 550 700 350 700 c 0
 150 700 0 549.997070312 0 350 c 0
 0 150 150 0 350 0 c 0
 467.40886039 0 567.586670157 51.6931518676 630.302649133 134.848675434 c 1
EndSplineSet
EndChar

StartChar: uni0090
Encoding: 144 144 53
Width: 725
VWidth: 0
Flags: HW
LayerCount: 2
Fore
SplineSet
350 300 m 0
 325 300 300 325 300 350 c 0
 300 375 325 400 350 400 c 0
 375 400 400 375 400 350 c 0
 400 325 375 300 350 300 c 0
615.893957236 117.053021382 m 1
 350 250 l 1
 686.718930497 250 l 1
 695.393592114 281.439094601 700 314.951812653 700 350 c 0
 700 550 550 700 350 700 c 0
 150 700 0 549.997070312 0 350 c 0
 0 150 150 0 350 0 c 0
 458.790389243 0 552.786592496 44.3825579683 615.893957236 117.053021382 c 1
EndSplineSet
EndChar

StartChar: uni0091
Encoding: 145 145 54
Width: 725
VWidth: 0
Flags: HW
LayerCount: 2
Fore
SplineSet
300 350 m 1
 300 375 325 400 350 400 c 0
 375 400 400 375 400 350 c 1
 300 350 l 1
654.930061547 172.534969226 m 1
 400 300 l 1
 696.791280536 300 l 1
 698.9097722 316.26194811 700 332.949269422 700 350 c 0
 700 550 550 700 350 700 c 0
 150 700 0 549.997070312 0 350 c 0
 0 150 150 0 350 0 c 0
 484.258728989 0 595.985700091 67.5952736615 654.930061547 172.534969226 c 1
EndSplineSet
EndChar

StartChar: uni0092
Encoding: 146 146 55
Width: 725
VWidth: 0
Flags: HW
LayerCount: 2
Fore
SplineSet
350 300 m 1
 325 300 300 325 300 350 c 1
 300 375 325 400 350 400 c 1
 375 400 400 375 400 350 c 1
 400 325 375 300 350 300 c 1
700 250 m 1
 700 350 l 0
 700 550 550 700 350 700 c 0
 150 700 0 549.997070312 0 350 c 0
 0 150 150 0 350 0 c 0
 650 0 l 1
 400 250 l 1
 700 250 l 1
EndSplineSet
EndChar

StartChar: uni008A
Encoding: 138 138 56
Width: 725
VWidth: 0
Flags: HW
LayerCount: 2
Fore
SplineSet
696.791280536 400 m 1
 674.060494866 574.485868068 532.949269422 700 350 700 c 0
 182.880147457 700 50.6716013061 595.264035237 11.7180853123 444.140957344 c 1
 300 300 l 1
 3.20871946413 300 l 1
 25.9395051339 125.514131932 167.050730578 -1.42108547152e-14 350 0 c 0
 517.120181977 0 649.328919924 104.73433209 688.282145047 255.858927476 c 1
 400 400 l 1
 696.791280536 400 l 1
EndSplineSet
EndChar

StartChar: x
Encoding: 120 120 57
Width: 800
VWidth: 0
Flags: HW
LayerCount: 2
Fore
SplineSet
450 0 m 1
 375 150 l 1
 300 0 l 1
 0 0 l 1
 175 350 l 1
 0 700 l 1
 300 700 l 1
 375 550 l 1
 450 700 l 5
 750 700 l 1
 575 350 l 1
 750 0 l 1
 450 0 l 1
EndSplineSet
EndChar

StartChar: uni0094
Encoding: 148 148 58
Width: 725
VWidth: 0
Flags: HW
LayerCount: 2
Fore
SplineSet
630.302649133 134.848675434 m 1
 200 350 l 1
 700 350 l 1
 700 550 550 700 350 700 c 0
 150 700 0 549.997070312 0 350 c 0
 0 150 150 0 350 0 c 0
 467.40886039 0 567.586670157 51.6931518676 630.302649133 134.848675434 c 1
EndSplineSet
EndChar

StartChar: uni0095
Encoding: 149 149 59
Width: 725
VWidth: 0
Flags: HW
LayerCount: 2
Fore
SplineSet
674.22503401 212.887482995 m 1
 400 350 l 1
 700 350 l 1
 700 550 550 700 350 700 c 0
 150 700 0 549.997070312 0 350 c 0
 0 150 150 0 350 0 c 0
 500.769051587 0 623.123969528 85.2424009363 674.22503401 212.887482995 c 1
EndSplineSet
EndChar

StartChar: uni0096
Encoding: 150 150 60
Width: 725
VWidth: 0
Flags: HW
LayerCount: 2
Fore
SplineSet
654.930061547 172.534969226 m 1
 300 350 l 1
 700 350 l 1
 700 550 550 700 350 700 c 0
 150 700 0 549.997070312 0 350 c 0
 0 150 150 0 350 0 c 0
 484.258728989 0 595.985700091 67.5952736615 654.930061547 172.534969226 c 1
EndSplineSet
EndChar

StartChar: uni0097
Encoding: 151 151 61
Width: 725
VWidth: 0
Flags: HW
LayerCount: 2
Fore
SplineSet
630.302649133 134.848675434 m 1
 200 350 l 1
 700 350 l 1
 700 550 550 700 350 700 c 0
 150 700 0 549.997070312 0 350 c 0
 0 150 150 0 350 0 c 0
 467.40886039 0 567.586670157 51.6931518676 630.302649133 134.848675434 c 1
EndSplineSet
EndChar

StartChar: uni0098
Encoding: 152 152 62
Width: 725
VWidth: 0
Flags: HW
LayerCount: 2
Fore
SplineSet
350 300 m 17
 325 300 300 325 300 350 c 0
 300 375 325 400 350 400 c 9
 696.791280536 400 l 1
 674.060494866 574.485868068 532.949269422 700 350 700 c 0
 150 700 0 549.997070312 0 350 c 0
 0 150 150 0 350 0 c 0
 532.949269422 0 674.060494866 125.514131932 696.791280536 300 c 1
 350 300 l 17
EndSplineSet
EndChar

StartChar: uni009A
Encoding: 154 154 63
Width: 1125
VWidth: 0
Flags: HW
LayerCount: 2
Fore
SplineSet
0 350 m 2
 0 550 150 700 350 700 c 0
 425.615151713 700 494.083239465 678.558808118 550 641.08068761 c 1
 605.916760535 678.558808118 674.384848287 700 750 700 c 0
 950 700 1100 550 1100 350 c 2
 1100 0 l 1
 798 0 l 1
 800 350 l 2
 800 375 775 400 750 400 c 0
 725 400 700 375 700 350 c 2
 700 0 l 1
 398 0 l 1
 398 0 l 1
 400 350 l 2
 400 375 375 400 350 400 c 0
 325 400 300 375 300 350 c 2
 300 0 l 1
 2 0 l 1
 0 350 l 2
EndSplineSet
EndChar

StartChar: uni009B
Encoding: 155 155 64
Width: 1125
VWidth: 0
Flags: HW
LayerCount: 2
Fore
SplineSet
0 350 m 2
 0 550 150 700 350 700 c 0
 425.615151713 700 444.083007812 678.55859375 500 641.081054688 c 1
 555.916992188 678.55859375 574.384765625 700 650 700 c 0
 850 700 1000 550 1000 350 c 2
 1000 0 l 1
 698 0 l 1
 700 350 l 2
 700 375 675 400 650 400 c 0
 650 350 l 2
 650 0 l 1
 348 0 l 1
 348 0 l 1
 350 350 l 2
 350 400 l 0
 325 400 300 375 300 350 c 2
 300 0 l 1
 2 0 l 1
 0 350 l 2
EndSplineSet
EndChar

StartChar: uni009C
Encoding: 156 156 65
Width: 925
VWidth: 0
Flags: HW
LayerCount: 2
Fore
SplineSet
0 350 m 2
 0 550 150 700 350 700 c 0
 425 700 450 675 450 675 c 1
 450 675 475 700 550 700 c 0
 750 700 900 550 900 350 c 2
 900 0 l 1
 598 0 l 1
 600 350 l 2
 600 375 575 400 550 400 c 0
 550 350 l 2
 550 0 l 1
 348 0 l 1
 348 0 l 1
 350 350 l 2
 350 400 l 0
 325 400 300 375 300 350 c 2
 300 0 l 1
 2 0 l 1
 0 350 l 2
EndSplineSet
EndChar

StartChar: uni009F
Encoding: 159 159 66
Width: 725
VWidth: 0
Flags: HW
LayerCount: 2
Fore
SplineSet
700 350 m 0
 700 150 350 0 350 0 c 0
 350 0 0 150 0 350 c 0
 0 700 l 0
 302 700 l 0
 300 350 l 1
 300 325 350 300 350 300 c 1
 350 300 400 325 400 350 c 1
 400 700 l 25
 698 700 l 17
 700 350 l 0
EndSplineSet
EndChar

StartChar: uni00A0
Encoding: 160 160 67
Width: 725
VWidth: 0
Flags: HW
LayerCount: 2
Fore
SplineSet
0 700 m 1
 350 0 l 1
 700 700 l 1
 500 700 l 1
 350 400 l 1
 200 700 l 1
 0 700 l 1
EndSplineSet
EndChar

StartChar: exclamdown
Encoding: 161 161 68
Width: 725
VWidth: 0
Flags: HW
LayerCount: 2
Fore
SplineSet
0 700 m 1
 350 0 l 1
 700 700 l 1
 450 700 l 1
 350 500 l 1
 250 700 l 1
 0 700 l 1
EndSplineSet
EndChar

StartChar: cent
Encoding: 162 162 69
Width: 725
VWidth: 0
Flags: HW
LayerCount: 2
Fore
SplineSet
0 700 m 1
 350 0 l 1
 700 700 l 1
 400 700 l 1
 350 600 l 1
 300 700 l 1
 0 700 l 1
EndSplineSet
EndChar

StartChar: sterling
Encoding: 163 163 70
Width: 925
VWidth: 0
Flags: HW
LayerCount: 2
Fore
SplineSet
550 0 m 1
 350 0 l 1
 0 700 l 1
 300 700 l 1
 450 400 l 1
 600 700 l 1
 900 700 l 1
 550 0 l 1
EndSplineSet
EndChar

StartChar: currency
Encoding: 164 164 71
Width: 925
VWidth: 0
Flags: HW
LayerCount: 2
Fore
SplineSet
550 0 m 1
 350 0 l 1
 0 700 l 1
 350 700 l 1
 450 490 l 1
 550 700 l 1
 900 700 l 1
 550 0 l 1
EndSplineSet
EndChar

StartChar: brokenbar
Encoding: 166 166 72
Width: 725
VWidth: 0
Flags: HW
LayerCount: 2
Fore
SplineSet
700 350 m 0
 698.171952407 532.80475932 574.485868068 674.060494866 400 696.791280536 c 1
 400 350 l 1
 350 300 l 2
 333 283 300 325 300 350 c 2
 300 696.791280536 l 1
 125.514131932 674.060494866 0 532.949269422 0 350 c 0
 0 150.002929688 150 0 350 0 c 2
 350 0 l 1
 200 -159 l 1
 500 -157 l 1
 700 50 l 1
 700 350 l 0
EndSplineSet
EndChar

StartChar: section
Encoding: 167 167 73
Width: 925
VWidth: 0
Flags: HW
LayerCount: 2
Fore
SplineSet
125 -150 m 1
 275 150 l 5
 0 700 l 1
 350 700 l 1
 450 500 l 1
 550 700 l 1
 900 700 l 1
 475 -150 l 1
 125 -150 l 1
EndSplineSet
EndChar

StartChar: dieresis
Encoding: 168 168 74
Width: 825
VWidth: 0
Flags: HW
LayerCount: 2
Fore
SplineSet
75 -150 m 1
 250 200 l 1
 0 700 l 1
 300 700 l 1
 400 500 l 1
 500 700 l 1
 800 700 l 1
 375 -150 l 1
 75 -150 l 1
EndSplineSet
EndChar

StartChar: N
Encoding: 78 78 75
Width: 800
VWidth: 0
Flags: HW
LayerCount: 2
Fore
SplineSet
0 900 m 25
 300 900 l 25
 450 600 l 25
 450 900 l 25
 750 900 l 25
 750 0 l 25
 450 0 l 25
 300 300 l 25
 300 0 l 25
 0 0 l 25
 0 900 l 25
EndSplineSet
EndChar

StartChar: ordfeminine
Encoding: 170 170 76
Width: 800
VWidth: 0
Flags: HW
LayerCount: 2
Fore
SplineSet
350 350 m 0
 251 350 251 550 350 550 c 0
 450 550 450 350 350 350 c 0
300 0 m 0
 400 0 l 1
 923 0 900 900 400 900 c 1
 300 900 l 0
 -200 898 -200 0 300 0 c 0
EndSplineSet
EndChar

StartChar: logicalnot
Encoding: 172 172 77
Width: 675
VWidth: 0
Flags: HW
LayerCount: 2
Fore
SplineSet
400 0 m 1
 350 100 l 1
 300 0 l 1
 0 0 l 1
 200 400 l 1
 50 700 l 1
 250 700 l 1
 300 600 l 1
 350 700 l 1
 650 700 l 1
 450 300 l 1
 600 0 l 1
 400 0 l 1
EndSplineSet
EndChar

StartChar: uni00AD
Encoding: 173 173 78
Width: 825
VWidth: 0
Flags: HW
LayerCount: 2
Fore
SplineSet
500 0 m 1
 400 200 l 1
 300 0 l 1
 0 0 l 1
 200 400 l 1
 0 800 l 1
 300 800 l 1
 400 600 l 1
 500 800 l 1
 800 800 l 1
 600 400 l 1
 800 0 l 1
 500 0 l 1
EndSplineSet
EndChar

StartChar: registered
Encoding: 174 174 79
Width: 875
VWidth: 0
Flags: HW
LayerCount: 2
Fore
SplineSet
550 0 m 1
 425 250 l 5
 300 0 l 1
 0 0 l 1
 225 450 l 1
 0 900 l 1
 300 900 l 1
 425 650 l 1
 550 900 l 1
 850 900 l 1
 625 450 l 1
 850 0 l 1
 550 0 l 1
EndSplineSet
EndChar

StartChar: macron
Encoding: 175 175 80
Width: 775
VWidth: 0
Flags: HW
LayerCount: 2
Fore
SplineSet
450 0 m 1
 375 150 l 1
 300 0 l 1
 0 0 l 1
 175 350 l 1
 0 700 l 1
 300 700 l 1
 375 550 l 1
 450 700 l 5
 750 700 l 1
 575 350 l 1
 750 0 l 1
 450 0 l 1
EndSplineSet
EndChar

StartChar: plusminus
Encoding: 177 177 81
Width: 725
VWidth: 0
Flags: HW
LayerCount: 2
Fore
SplineSet
400 350 m 5
 300 350 l 4
 300 375 l 4
 300 400 325 425 350 425 c 4
 375 425 400 400 400 375 c 4
 400 350 l 5
630.302649133 134.848675434 m 1
 400 250 l 1
 686.718930497 250 l 1
 695.393592114 281.439094601 700 314.951812653 700 350 c 0
 700 550 550 700 350 700 c 0
 150 700 0 549.997070312 0 350 c 0
 0 150 150 0 350 0 c 0
 467.40886039 0 567.586670157 51.6931518676 630.302649133 134.848675434 c 1
EndSplineSet
EndChar

StartChar: uni00B2
Encoding: 178 178 82
Width: 725
VWidth: 0
Flags: HW
LayerCount: 2
Fore
SplineSet
400 300 m 1
 350 300 l 1
 325 300 300 325 300 350 c 1
 300 375 325 400 350 400 c 1
 375 400 400 375 400 350 c 1
 400 300 l 1
700 0 m 1
 700 350 l 1
 700 550 550 700 350 700 c 0
 150 700 0 549.997070312 0 350 c 0
 0 150 150 0 350 0 c 1
 700 0 l 1
EndSplineSet
EndChar

StartChar: uni00B3
Encoding: 179 179 83
Width: 725
VWidth: 0
Flags: HW
LayerCount: 2
Fore
SplineSet
350 300 m 5
 325 300 300 325 300 350 c 1
 300 375 325 400 350 400 c 1
 375 400 400 375 400 350 c 5
 350 300 l 5
700 0 m 1
 700 350 l 1
 700 550 550 700 350 700 c 0
 150 700 0 549.997070312 0 350 c 0
 0 150 150 0 350 0 c 1
 700 0 l 1
EndSplineSet
EndChar

StartChar: mu
Encoding: 181 181 84
Width: 725
VWidth: 0
Flags: HW
LayerCount: 2
Fore
SplineSet
400 400 m 1
 400 350 l 1
 400 325 375 300 350 300 c 1
 325 300 300 325 300 350 c 1
 300 375 325 400 350 400 c 1
 400 400 l 1
400 700 m 1
 350 700 l 1
 150 700 0 549.997070312 0 350 c 0
 0 150 150 0 350 0 c 0
 550 0 700 150 700 350 c 1
 701 850 l 1
 400 850 l 1
 400 700 l 1
EndSplineSet
EndChar

StartChar: paragraph
Encoding: 182 182 85
Width: 725
VWidth: 0
Flags: HW
LayerCount: 2
Fore
SplineSet
400 350 m 5
 400 325 375 300 350 300 c 1
 325 300 300 325 300 350 c 1
 300 375 325 400 350 400 c 5
 400 350 l 5
400 700 m 1
 350 700 l 1
 150 700 0 549.997070312 0 350 c 0
 0 150 150 0 350 0 c 0
 550 0 700 150 700 350 c 1
 701 850 l 1
 400 850 l 1
 400 700 l 1
EndSplineSet
EndChar

StartChar: cedilla
Encoding: 184 184 86
Width: 725
VWidth: 0
Flags: HW
LayerCount: 2
Fore
SplineSet
400 300 m 1
 400 350 l 1
 400 375 375 400 350 400 c 1
 325 400 300 375 300 350 c 1
 300 325 325 300 350 300 c 1
 400 300 l 1
400 0 m 1
 350 0 l 1
 150 0 0 150.002929688 0 350 c 0
 0 550 150 700 350 700 c 0
 550 700 700 550 700 350 c 1
 700 150 l 1
 700 -50 600 -150 400 -150 c 5
 400 0 l 1
EndSplineSet
EndChar

StartChar: uni00B9
Encoding: 185 185 87
Width: 725
VWidth: 0
Flags: HW
LayerCount: 2
Fore
SplineSet
400 300 m 1
 400 350 l 1
 400 375 375 400 350 400 c 1
 325 400 300 375 300 350 c 1
 300 325 325 300 350 300 c 1
 400 300 l 1
150 -150 m 4
 350 0 l 1
 150 0 0 150.002929688 0 350 c 0
 0 550 150 700 350 700 c 0
 550 700 700 550 700 350 c 1
 700 150 l 1
 700 -50 550 -150 350 -150 c 1
 350 -150 150 -150 150 -150 c 4
EndSplineSet
EndChar

StartChar: ordmasculine
Encoding: 186 186 88
Width: 725
VWidth: 0
Flags: HW
LayerCount: 2
Fore
SplineSet
400 300 m 1
 400 350 l 1
 400 375 375 400 350 400 c 1
 325 400 300 375 300 350 c 1
 300 325 325 300 350 300 c 1
 400 300 l 1
275 -150 m 5
 350 0 l 1
 150 0 0 150.002929688 0 350 c 0
 0 550 150 700 350 700 c 0
 550 700 700 550 700 350 c 1
 700 150 l 1
 550 -150 l 1
 275 -150 l 5
EndSplineSet
EndChar

StartChar: onequarter
Encoding: 188 188 89
Width: 325
VWidth: 0
Flags: HW
LayerCount: 2
Fore
SplineSet
0 800 m 4
 7.65404249467e-15 925 300 925 300 800 c 4
 300 750 l 5
 0 750 l 5
 0 800 l 4
0 700 m 25
 300 700 l 25
 300 0 l 1
 0 0 l 1
 0 700 l 25
EndSplineSet
EndChar

StartChar: onehalf
Encoding: 189 189 90
Width: 475
VWidth: 0
Flags: HW
LayerCount: 2
Fore
SplineSet
150 800 m 0
 150 925 450 925 450 800 c 0
 450 750 l 1
 150 750 l 1
 150 800 l 0
150 700 m 1
 150 200 l 1
 150 200 l 1
 150 175 125 150 100 150 c 1
 0 150 l 1
 0 -150 l 1
 100 -150 l 0
 300 -150 450 0 450 200 c 1
 451 700 l 1
 150 700 l 1
 150 700 l 1
EndSplineSet
EndChar

StartChar: questiondown
Encoding: 191 191 91
Width: 725
VWidth: 0
Flags: HW
LayerCount: 2
Fore
SplineSet
702 250 m 1
 702 125 575 0 450 0 c 0
 250 0 l 0
 125 0 0 125 0 250 c 0
 350 250 l 0
 380 250 400 272 400 300 c 24
 400 328 380 350 350 350 c 0
 350 350 250 350 250 350 c 2
 125 350 0 475 0 600 c 0
 0 650 l 1
 0 772 123.497977834 900 250 900 c 1
 450 900 l 0
 578 900 700 775 700 650 c 0
 300 650 l 0
 272.833984375 650 250 628 250 600 c 24
 250 572 272.541015625 550 300 550 c 0
 450 550 l 2
 575 550 702 425 702 300 c 0
 702 250 l 1
EndSplineSet
EndChar

StartChar: U
Encoding: 85 85 92
Width: 750
VWidth: 0
Flags: HW
LayerCount: 2
Fore
SplineSet
700 350 m 0
 700 150 550 0 350 0 c 0
 150 0 0 150 0 350 c 0
 0 900 l 4
 302 900 l 4
 300 350 l 1
 300 325 325 300 350 300 c 1
 375 300 400 325 400 350 c 1
 400 900 l 29
 698 900 l 21
 700 350 l 0
EndSplineSet
EndChar

StartChar: T
Encoding: 84 84 93
Width: 750
VWidth: 0
Flags: HW
LayerCount: 2
Fore
SplineSet
0 900 m 25
 0 600 l 25
 200 600 l 25
 200 0 l 25
 500 0 l 25
 500 600 l 25
 700 600 l 25
 700 900 l 25
 0 900 l 25
EndSplineSet
EndChar

StartChar: Agrave
Encoding: 192 192 94
Width: 725
VWidth: 0
Flags: HW
LayerCount: 2
Fore
SplineSet
700 300 m 0
 700 100 550 0 350 0 c 0
 150 0 0 100 0 300 c 1
 350 300 l 4
 375 300 400 325 400 350 c 4
 350 350 l 4
 350 350 300 350 300 350 c 2
 125 350 0 425 0 600 c 0
 0 800 150 900 350 900 c 0
 550 900 700 800 700 600 c 1
 350 600 l 0
 325 600 300 575 300 550 c 0
 350 550 l 0
 400 550 l 2
 575 550 700 475 700 300 c 0
EndSplineSet
EndChar

StartChar: Aacute
Encoding: 193 193 95
Width: 725
VWidth: 0
Flags: HW
LayerCount: 2
Fore
SplineSet
700 300 m 4
 700 100 550 0 350 0 c 0
 150 0 0 100 0 300 c 1
 350 300 l 0
 375 300 400 300 400 300 c 0
 350 300 l 0
 350 300 300 300 300 300 c 2
 125 300 0 400 0 600 c 4
 0 800 150 900 350 900 c 0
 550 900 700 800 700 600 c 1
 350 600 l 1
 528 600 700 500 700 300 c 4
EndSplineSet
EndChar

StartChar: Acircumflex
Encoding: 194 194 96
Width: 725
VWidth: 0
Flags: HW
LayerCount: 2
Fore
SplineSet
700 450 m 1
 700 300 l 0
 700 100 550 0 350 0 c 0
 150 0 0 100 0 300 c 1
 295 300 l 1
 0 450 l 5
 0 600 l 0
 0 800 150 900 350 900 c 0
 550 900 700 800 700 600 c 1
 400 600 l 1
 700 450 l 1
EndSplineSet
EndChar

StartChar: Atilde
Encoding: 195 195 97
Width: 725
VWidth: 0
Flags: HW
LayerCount: 2
Fore
SplineSet
700 400 m 1
 700 350 l 4
 700 150 550 0 350 0 c 0
 150 0 0 150 0 350 c 5
 395 350 l 5
 0 500 l 1
 0 550 l 0
 0 750 150 900 350 900 c 0
 550 900 700 750 700 550 c 1
 300 550 l 1
 700 400 l 1
EndSplineSet
EndChar

StartChar: Adieresis
Encoding: 196 196 98
Width: 725
VWidth: 0
Flags: HW
LayerCount: 2
Fore
SplineSet
400 0 m 0
 0 0 l 4
 0 250 l 0
 350 250 l 0
 375 250 400 275 400 300 c 0
 400 325 375 350 350 350 c 0
 350 350 250 350 250 350 c 2
 125 350 0 475 0 600 c 0
 0 775 125 900 300 900 c 1
 700 900 l 0
 700 650 l 0
 350 650 l 0
 325 650 300 625 300 600 c 0
 300 575 325 550 350 550 c 0
 450 550 l 2
 575 550 700 425 700 300 c 0
 700 120 575 0 400 0 c 0
EndSplineSet
EndChar

StartChar: Aring
Encoding: 197 197 99
Width: 725
VWidth: 0
Flags: HW
LayerCount: 2
Fore
SplineSet
400 0 m 0
 125 0 l 4
 0 250 l 0
 350 250 l 0
 375 250 400 275 400 300 c 0
 400 325 375 350 350 350 c 0
 350 350 250 350 250 350 c 2
 125 350 0 475 0 600 c 0
 0 775 125 900 300 900 c 1
 575 900 l 0
 700 650 l 0
 350 650 l 0
 325 650 300 625 300 600 c 0
 300 575 325 550 350 550 c 0
 450 550 l 2
 575 550 700 425 700 300 c 0
 700 120 575 0 400 0 c 0
EndSplineSet
EndChar

StartChar: AE
Encoding: 198 198 100
Width: 725
VWidth: 0
Flags: HW
LayerCount: 2
Fore
SplineSet
400 0 m 0
 200 0 l 4
 0 250 l 0
 350 250 l 0
 375 250 400 275 400 300 c 0
 400 325 375 350 350 350 c 0
 350 350 250 350 250 350 c 2
 125 350 0 475 0 600 c 0
 0 775 125 900 300 900 c 1
 500 900 l 0
 700 650 l 0
 350 650 l 0
 325 650 300 625 300 600 c 0
 300 575 325 550 350 550 c 0
 450 550 l 2
 575 550 700 425 700 300 c 0
 700 120 575 0 400 0 c 0
EndSplineSet
EndChar

StartChar: Egrave
Encoding: 200 200 101
Width: 725
VWidth: 0
Flags: HW
LayerCount: 2
Fore
SplineSet
3.01548058328 398.492259708 m 1
 300 250 l 1
 13.2810695033 250 l 1
 54.1077503162 102.034126865 185.048187347 0 350 0 c 0
 533.475789738 9.94759830064e-14 674.872372701 126.237620325 696.984591943 301.507704028 c 1
 400 450 l 1
 686.718930497 450 l 1
 645.892249684 597.965873135 514.951812653 700 350 700 c 0
 166.524410857 700 25.1279364775 573.760190133 3.01548058328 398.492259708 c 1
EndSplineSet
EndChar

StartChar: Ccedilla
Encoding: 199 199 102
Width: 725
VWidth: 0
Flags: HW
LayerCount: 2
Fore
SplineSet
400 0 m 0
 125 0 l 0
 0 250 l 0
 350 250 l 0
 375 250 400 275 400 300 c 0
 350 300 l 0
 350 300 150 300 150 300 c 2
 100 300 0 350 0 450 c 0
 0 625 150 700 300 700 c 1
 575 700 l 0
 700 450 l 0
 350 450 l 0
 325 450 300 425 300 400 c 0
 350 400 l 0
 550 400 l 2
 600 400 700 350 700 250 c 0
 700 75 550 0 400 0 c 0
EndSplineSet
EndChar

StartChar: Eacute
Encoding: 201 201 103
Width: 725
VWidth: 0
Flags: HW
LayerCount: 2
Fore
SplineSet
400 0 m 0
 125 0 l 0
 0 250 l 0
 400 250 l 0
 375 300 l 5
 150 300 l 2
 100 300 0 350 0 450 c 0
 0 625 150 700 300 700 c 1
 575 700 l 0
 700 450 l 0
 300 450 l 0
 325 400 l 1
 550 400 l 2
 600 400 700 350 700 250 c 0
 700 75 550 0 400 0 c 0
EndSplineSet
EndChar

StartChar: Ecircumflex
Encoding: 202 202 104
Width: 725
VWidth: 0
Flags: HW
LayerCount: 2
Fore
SplineSet
400 0 m 0
 150 0 l 0
 0 300 l 0
 425 300 l 4
 400 350 l 5
 275 350 l 0
 125 350 0 475 0 625 c 0
 0 775 100 900 300 900 c 1
 550 900 l 0
 700 600 l 0
 275 600 l 0
 300 550 l 1
 425 550 l 0
 575 550 700 425 700 275 c 0
 700 124.99609375 600 0 400 0 c 0
EndSplineSet
EndChar

StartChar: R
Encoding: 82 82 105
Width: 750
VWidth: 0
Flags: HW
LayerCount: 2
Fore
SplineSet
300 475 m 5
 300 625 l 5
 325 625 l 5
 375 625 400 600 400 550 c 5
 400 500 375 475 325 475 c 5
 300 475 l 5
400 0 m 1
 700 0 l 1
 565.151005101 269.697989798 l 1
 648.306715736 332.414493717 700 432.592709116 700 550 c 0
 700 750 550 900 350 900 c 2
 0 900 l 1
 0 0 l 1
 300 0 l 1
 300 200 l 1
 400 0 l 1
EndSplineSet
EndChar

StartChar: Edieresis
Encoding: 203 203 106
Width: 725
VWidth: 0
Flags: HW
LayerCount: 2
Fore
SplineSet
400 0 m 29
 700 0 l 25
 500 400 l 25
 200 400 l 29
 400 0 l 29
300 500 m 1
 300 600 l 1
 350 600 l 1
 375 600 400 575 400 550 c 1
 400 525 375 500 350 500 c 1
 300 500 l 1
300 200 m 1
 350 200 l 1
 550 200 700 350.002929688 700 550 c 0
 700 750 550 900 350 900 c 1
 0 900 l 1
 0 0 l 1
 300 0 l 1
 300 200 l 1
EndSplineSet
EndChar

StartChar: M
Encoding: 77 77 107
Width: 950
VWidth: 0
Flags: HW
LayerCount: 2
Fore
SplineSet
600 900 m 25
 450 600 l 25
 300 900 l 25
 0 900 l 25
 0 0 l 25
 300 0 l 25
 300 300 l 25
 450 0 l 25
 600 300 l 25
 600 0 l 25
 900 0 l 25
 900 900 l 25
 600 900 l 25
EndSplineSet
EndChar

StartChar: I
Encoding: 73 73 108
Width: 650
VWidth: 0
Flags: HW
LayerCount: 2
Fore
SplineSet
0 900 m 25
 0 600 l 29
 150 600 l 29
 150 300 l 25
 0 300 l 25
 0 0 l 25
 600 0 l 25
 600 300 l 25
 450 300 l 25
 450 600 l 29
 600 600 l 29
 600 900 l 25
 0 900 l 25
EndSplineSet
EndChar

StartChar: H
Encoding: 72 72 109
Width: 750
VWidth: 0
Flags: HW
LayerCount: 2
Fore
SplineSet
0 900 m 25
 0 0 l 25
 300 0 l 25
 300 300 l 25
 400 300 l 25
 400 0 l 25
 700 0 l 25
 700 900 l 25
 400 900 l 25
 400 600 l 25
 300 600 l 25
 300 900 l 25
 0 900 l 25
EndSplineSet
EndChar

StartChar: F
Encoding: 70 70 110
Width: 650
VWidth: 0
Flags: HW
LayerCount: 2
Fore
SplineSet
0 900 m 25
 0 0 l 25
 300 0 l 25
 300 350 l 29
 500 350 l 29
 500 550 l 29
 300 550 l 29
 300 600 l 25
 600 600 l 25
 600 900 l 25
 0 900 l 25
EndSplineSet
EndChar

StartChar: E
Encoding: 69 69 111
Width: 650
VWidth: 0
Flags: HW
LayerCount: 2
Fore
SplineSet
500 350 m 1
 500 550 l 1
 300 550 l 25
 300 600 l 25
 600 600 l 25
 600 900 l 25
 0 900 l 25
 0 0 l 1
 600 0 l 1
 600 300.000976562 l 5
 300 300 l 1
 300 350 l 1
 500 350 l 1
EndSplineSet
EndChar

StartChar: A
Encoding: 65 65 112
Width: 950
VWidth: 0
Flags: HW
LayerCount: 2
Fore
SplineSet
225 900 m 1
 675 900 l 1
 900 0 l 1
 600 0 l 1
 550 200 l 1
 350 200 l 1
 300 0 l 1
 0 0 l 1
 225 900 l 1
500 400 m 1
 450 600 l 1
 400 400 l 1
 500 400 l 1
EndSplineSet
EndChar

StartChar: B
Encoding: 66 66 113
Width: 750
VWidth: 0
Flags: HW
LayerCount: 2
Fore
SplineSet
300 525 m 1
 300 675 l 1
 325 675 l 1
 375 675 400 650 400 600 c 1
 400 550 375 525 325 525 c 1
 300 525 l 1
300 375 m 1
 325 375 l 1
 375 375 400 350 400 300 c 5
 400 250 375 225 325 225 c 1
 300 225 l 1
 300 375 l 1
657.311474744 450 m 1
 684.682785524 493.263109886 700 544.078985028 700 600 c 0
 700 775 550 900 350 900 c 2
 300 900 l 1
 0 900 l 1
 0 0 l 1
 300 0 l 1
 350 0 l 2
 550 0 700 125 700 300 c 0
 700 355.921014972 684.682785524 406.736890114 657.311474744 450 c 1
EndSplineSet
EndChar

StartChar: C
Encoding: 67 67 114
Width: 940
VWidth: 0
Flags: W
HStem: 0 350<392.404 507.596> 550 350<392.404 507.596>
LayerCount: 2
Fore
SplineSet
450 250 m 0
 250 250 250 650 450 650 c 0
 515.270364467 650 559.239626545 607.397795224 581.907786236 550 c 1
 890 550 l 1
 851.906300368 737.152987725 705.223049331 900 450 900 c 0
 -150 900 -150 0 450 0 c 0
 705.223049331 0 851.906300368 162.847012275 890 350 c 1
 581.907786236 350 l 1
 559.239626545 292.602204776 515.270364467 250 450 250 c 0
EndSplineSet
EndChar

StartChar: Igrave
Encoding: 204 204 115
Width: 900
VWidth: 0
Flags: W
HStem: 0 350<392.404 507.596> 550 350<392.404 507.596>
LayerCount: 2
Fore
SplineSet
450 200 m 0
 225 200 225 700 450 700 c 4
 514.606663219 700 560.662122294 658.775101904 588.166377226 600 c 1
 875 600 l 1
 822.510683083 765.23357329 682.177885863 900 450 900 c 0
 -150 900 -150 0 450 0 c 0
 682.177885863 0 822.510683083 134.76642671 875 300 c 5
 588.166377226 300 l 1
 560.662122294 241.224898096 514.606663219 200 450 200 c 0
EndSplineSet
EndChar

StartChar: Iacute
Encoding: 205 205 116
Width: 925
VWidth: 0
Flags: HW
HStem: 0 350<392.404 507.596> 550 350<392.404 507.596>
LayerCount: 2
Fore
SplineSet
450 250 m 4
 250 250 250 650 450 650 c 4
 650 650 650 250 450 250 c 4
450 0 m 1
 1050 0 1050 900 450 900 c 0
 -150 900 -150 0 450 0 c 1
EndSplineSet
EndChar

StartChar: Icircumflex
Encoding: 206 206 117
Width: 925
VWidth: 0
Flags: HW
HStem: 0 350<392.404 507.596> 550 350<392.404 507.596>
LayerCount: 2
Fore
SplineSet
450 300 m 0
 250 300 250 600 450 600 c 0
 515.270364467 600 559.239626545 568.048346418 581.907786236 525 c 1
 894.398049273 525 l 1
 864.660453624 722.407368837 716.527770533 900 450 900 c 0
 -150 900 -150 0 450 0 c 0
 716.527770533 0 864.660453624 177.592631163 894.398049273 375 c 1
 581.907786236 375 l 1
 559.239626545 331.951653582 515.270364467 300 450 300 c 0
EndSplineSet
EndChar

StartChar: Idieresis
Encoding: 207 207 118
Width: 915
VWidth: 0
Flags: HW
HStem: 0 350<392.404 507.596> 550 350<392.404 507.596>
LayerCount: 2
Fore
SplineSet
450 250 m 0
 250 250 250 650 450 650 c 0
 515.270364467 650 559.239626545 607.397795224 581.907786236 550 c 1
 890 550 l 1
 851.906300368 737.152987725 705.223049331 900 450 900 c 0
 -150 900 -150 0 450 0 c 0
 705.223049331 0 851.906300368 162.847012275 890 350 c 1
 581.907786236 350 l 1
 559.239626545 292.602204776 515.270364467 250 450 250 c 0
EndSplineSet
EndChar

StartChar: Eth
Encoding: 208 208 119
Width: 900
VWidth: 0
Flags: W
HStem: 0 350<392.404 507.596> 550 350<392.404 507.596>
LayerCount: 2
Fore
SplineSet
450 200 m 0
 225 200 225 700 450 700 c 4
 514.606663219 700 560.662122294 658.775101904 588.166377226 600 c 1
 875 600 l 1
 822.510683083 765.23357329 682.177885863 900 450 900 c 0
 -150 900 -150 0 450 0 c 0
 682.177885863 0 822.510683083 134.76642671 875 300 c 5
 588.166377226 300 l 1
 560.662122294 241.224898096 514.606663219 200 450 200 c 0
EndSplineSet
EndChar

StartChar: W
Encoding: 87 87 120
Width: 1400
VWidth: 0
Flags: HW
LayerCount: 2
Fore
SplineSet
575 0 m 1
 275 0 l 1
 0 900 l 1
 350 900 l 1
 450 500 l 1
 550 900 l 1
 800 900 l 1
 900 500 l 1
 1000 900 l 1
 1350 900 l 1
 1075 0 l 1
 775 0 l 1
 675 327.272460938 l 1
 575 0 l 1
EndSplineSet
EndChar

StartChar: Ograve
Encoding: 210 210 121
Width: 725
VWidth: 0
Flags: HW
LayerCount: 2
Fore
SplineSet
400 0 m 0
 0 0 l 4
 0 300 l 0
 425 300 l 0
 400 350 l 1
 275 350 l 0
 125 350 0 475 0 625 c 0
 0 775 100 900 300 900 c 1
 700 900 l 0
 700 600 l 0
 275 600 l 0
 300 550 l 1
 425 550 l 0
 575 550 700 425 700 275 c 0
 700 124.99609375 600 0 400 0 c 0
EndSplineSet
EndChar

StartChar: Oacute
Encoding: 211 211 122
Width: 725
VWidth: 0
Flags: HW
LayerCount: 2
Fore
SplineSet
400 0 m 0
 150 0 l 0
 0 300 l 0
 425 300 l 4
 400 350 l 5
 275 350 l 0
 125 350 0 475 0 625 c 0
 0 775 100 900 300 900 c 1
 550 900 l 0
 700 600 l 0
 275 600 l 0
 300 550 l 1
 425 550 l 0
 575 550 700 425 700 275 c 0
 700 124.99609375 600 0 400 0 c 0
EndSplineSet
EndChar

StartChar: G
Encoding: 71 71 123
Width: 950
VWidth: 0
Flags: HW
HStem: 0 350<392.404 507.596> 550 350<392.404 507.596>
LayerCount: 2
Fore
SplineSet
450 250 m 0
 250 250 250 650 450 650 c 0
 515.270364467 650 559.239626545 607.397795224 581.907786236 550 c 1
 889.975123444 550 l 1
 851.881423812 737.152987725 705.223049331 900 450 900 c 0
 -150 900 -150 0 450 0 c 0
 750 0 900 225 900 450 c 1
 900 500 l 1
 450 500 l 1
 450 350 l 5
 581.907786236 350 l 1
 559.239626545 292.602204776 515.270364467 250 450 250 c 0
EndSplineSet
EndChar

StartChar: V
Encoding: 86 86 124
Width: 950
VWidth: 0
Flags: HW
LayerCount: 2
Fore
SplineSet
625 0 m 1
 275 0 l 1
 0 900 l 1
 350 900 l 1
 450 500 l 1
 550 900 l 1
 900 900 l 1
 625 0 l 1
EndSplineSet
EndChar

StartChar: Y
Encoding: 89 89 125
Width: 900
VWidth: 0
Flags: HW
LayerCount: 2
Fore
SplineSet
575 350 m 5
 850 900 l 1
 550 900 l 1
 425 650 l 1
 300 900 l 1
 0 900 l 1
 275 350 l 9
 275 0 l 25
 575 0 l 25
 575 350 l 5
EndSplineSet
EndChar

StartChar: Otilde
Encoding: 213 213 126
Width: 1125
VWidth: 0
Flags: HW
LayerCount: 2
Fore
SplineSet
450 900 m 1
 650 900 l 1
 1100 0 l 1
 800 0 l 1
 700 200 l 1
 400 200 l 5
 300 0 l 1
 0 0 l 1
 450 900 l 1
600 400 m 1
 550 500 l 1
 500 400 l 1
 600 400 l 1
EndSplineSet
EndChar

StartChar: Odieresis
Encoding: 214 214 127
Width: 925
VWidth: 0
Flags: HW
LayerCount: 2
Fore
SplineSet
225 900 m 1
 675 900 l 1
 900 0 l 1
 600 0 l 1
 550 200 l 1
 350 200 l 1
 300 0 l 1
 0 0 l 1
 225 900 l 1
500 400 m 1
 450 600 l 1
 400 400 l 1
 500 400 l 1
EndSplineSet
EndChar

StartChar: multiply
Encoding: 215 215 128
Width: 975
VWidth: 0
Flags: HW
LayerCount: 2
Fore
SplineSet
225 900 m 1
 725 900 l 1
 950 0 l 1
 650 0 l 1
 600 200 l 5
 350 200 l 1
 300 0 l 1
 0 0 l 1
 225 900 l 1
496 600 m 1
 450 600 l 1
 400 400 l 1
 550 400 l 1
 496 600 l 1
EndSplineSet
EndChar

StartChar: Ugrave
Encoding: 217 217 129
Width: 1125
VWidth: 0
Flags: HW
LayerCount: 2
Fore
SplineSet
650 0 m 1
 450 0 l 1
 0 900 l 1
 350 900 l 1
 550 500 l 1
 750 900 l 1
 1100 900 l 1
 650 0 l 1
EndSplineSet
EndChar

StartChar: Uacute
Encoding: 218 218 130
Width: 925
VWidth: 0
Flags: HW
LayerCount: 2
Fore
SplineSet
625 0 m 1
 275 0 l 1
 0 900 l 1
 350 900 l 1
 450 500 l 1
 550 900 l 1
 900 900 l 1
 625 0 l 1
EndSplineSet
EndChar

StartChar: Ucircumflex
Encoding: 219 219 131
Width: 725
VWidth: 0
Flags: HW
LayerCount: 2
Fore
SplineSet
400 0 m 0
 0 0 l 0
 0 300 l 0
 350 300 l 0
 375 300 400 325 400 350 c 0
 275 350 l 0
 125 350 0 475 0 625 c 0
 0 775 100 900 300 900 c 1
 700 900 l 0
 700 600 l 0
 350 600 l 0
 325 600 300 575 300 550 c 4
 425 550 l 0
 575 550 700 425 700 275 c 0
 700 124.99609375 600 0 400 0 c 0
EndSplineSet
EndChar

StartChar: Yacute
Encoding: 221 221 132
Width: 725
VWidth: 0
Flags: HW
LayerCount: 2
Fore
SplineSet
400 0 m 0
 0 0 l 0
 0 300 l 0
 400 300 l 4
 400 350 l 1
 275 350 l 0
 125 350 0 475 0 625 c 0
 0 775 100 900 300 900 c 1
 700 900 l 0
 700 600 l 0
 300 600 l 0
 300 550 l 1
 425 550 l 0
 575 550 700 425 700 275 c 0
 700 124.99609375 600 0 400 0 c 0
EndSplineSet
EndChar

StartChar: Udieresis
Encoding: 220 220 133
Width: 725
VWidth: 0
Flags: HW
LayerCount: 2
Fore
SplineSet
400 0 m 0
 0 0 l 0
 0 300 l 0
 400 300 l 4
 400 325 375 350 350 350 c 0
 275 350 l 0
 125 350 0 475 0 625 c 0
 0 775 100 900 300 900 c 1
 700 900 l 0
 700 600 l 0
 300 600 l 0
 300 575 325 550 350 550 c 0
 425 550 l 0
 575 550 700 425 700 275 c 0
 700 124.99609375 600 0 400 0 c 0
EndSplineSet
EndChar

StartChar: germandbls
Encoding: 223 223 134
Width: 800
VWidth: 0
Flags: HW
LayerCount: 2
Fore
SplineSet
299 550 m 1
 299 350 l 1
 299 350 349.90625 350 350 350 c 1
 450 350 450 550 350 550 c 1
 299 550 l 1
0 902 m 25
 300 900 l 1
 400 900 l 1
 900.772111459 900.686892156 900 0 400 0 c 2
 300 0 l 1
 0 0 l 25
 0 902 l 25
EndSplineSet
EndChar

StartChar: agrave
Encoding: 224 224 135
Width: 850
VWidth: 0
Flags: HW
LayerCount: 2
Fore
SplineSet
349 600 m 1
 349 300 l 1
 349 300 399.90625 300 400 300 c 1
 552 300 552 600 400 600 c 1
 349 600 l 1
0 902 m 25
 300 900 l 1
 450 900 l 1
 950.772460938 900.686523438 950 0 450 0 c 2
 300 0 l 1
 0 0 l 25
 0 902 l 25
EndSplineSet
EndChar

StartChar: aacute
Encoding: 225 225 136
Width: 800
VWidth: 0
Flags: HW
LayerCount: 2
Fore
SplineSet
300 600 m 1
 300 300 l 1
 300 300 350 300 350 300 c 1
 500 300 500 600 350 600 c 1
 300 600 l 1
0 900 m 29
 300 900 l 1
 400 900 l 1
 900 900 900 0 400 0 c 2
 300 0 l 1
 0 0 l 25
 0 900 l 29
EndSplineSet
EndChar

StartChar: nine
Encoding: 57 57 137
Width: 750
VWidth: 0
Flags: HW
LayerCount: 2
Fore
SplineSet
700 600 m 4
 700 800 550 900 350 900 c 4
 150 900 0 800 0 600 c 4
 0 541.420898438 12.8681640625 491.420898438 36.091796875 449.999023438 c 5
 36.091796875 449.999023438 76 350 348 350 c 4
 375.856445312 350 400 334 399.9375 302.174804688 c 5
 399.978515625 301.450195312 400 300.725585938 400 300 c 4
 400 275 375 250 350 250 c 4
 50 250 l 5
 50 0 l 21
 350 0 l 4
 550 0 700 100 700 300 c 4
 700 600 l 4
350 650 m 4
 375 650 400 625 400 600 c 4
 400 599.274414062 399.978515625 598.549804688 399.9375 597.825195312 c 5
 400 574 368.029296875 550 351 550 c 4
 333.970703125 550 300 572 300.0625 597.825195312 c 5
 300.021484375 598.549804688 300 599.274414062 300 600 c 4
 300 625 325 650 350 650 c 4
EndSplineSet
EndChar

StartChar: two
Encoding: 50 50 138
Width: 700
VWidth: 0
Flags: HW
LayerCount: 2
Fore
SplineSet
600 500 m 1
 500 300 l 0
 650 300 l 0
 650 0 l 0
 0 0 l 1
 300 600 l 1
 0 600 l 5
 0 825 125 900 350 900 c 4
 550 900 725 750 600 500 c 1
EndSplineSet
EndChar

StartChar: three
Encoding: 51 51 139
Width: 700
VWidth: 0
Flags: HW
LayerCount: 2
Fore
SplineSet
650 350 m 0
 650 150 500 0 300 0 c 0
 0 0 l 1
 0 300.000976562 l 1
 350 300 l 1
 350 350 l 1
 100 350 l 1
 100 550 l 1
 350 550 l 25
 350 600 l 25
 0 600 l 25
 0 900 l 1
 300 900 l 0
 500 900 648 750 648 550 c 0
 648 550 650 350 650 350 c 0
EndSplineSet
EndChar

StartChar: four
Encoding: 52 52 140
Width: 750
VWidth: 0
Flags: HW
LayerCount: 2
Fore
SplineSet
300 650 m 4
 300 900 l 1
 0 900 l 1
 0 650 l 0
 0 450 150 300 350 300 c 0
 400 300 l 1
 400 0 l 25
 700 0 l 1
 700 900 l 1
 400 900 l 1
 400 600 l 5
 350 600 l 4
 325 600 300 625 300 650 c 4
EndSplineSet
EndChar

StartChar: five
Encoding: 53 53 141
Width: 750
VWidth: 0
Flags: HW
LayerCount: 2
Fore
SplineSet
700 350 m 2
 700 150 550 0 350 0 c 4
 0 0 l 1
 0 300 l 0
 350 300 l 0
 375 300 400 325 400 350 c 0
 0 350 l 1
 0 900 l 1
 700 900 l 0
 700 600 l 0
 300 600 l 0
 300 550 l 0
 700 550 l 1
 700 350 l 2
EndSplineSet
EndChar

StartChar: seven
Encoding: 55 55 142
Width: 800
VWidth: 0
Flags: HW
LayerCount: 2
Fore
SplineSet
750 700 m 1
 400 0 l 1
 50 0 l 25
 350 600 l 25
 0 600 l 25
 0 900 l 1
 750 900 l 1
 750 700 l 1
EndSplineSet
EndChar

StartChar: atilde
Encoding: 227 227 143
Width: 875
VWidth: 0
Flags: HW
LayerCount: 2
Fore
SplineSet
0 900 m 25
 0 600 l 25
 350 600 l 25
 50 0 l 25
 400 0 l 25
 850 900 l 25
 0 900 l 25
EndSplineSet
EndChar

StartChar: adieresis
Encoding: 228 228 144
Width: 875
VWidth: 0
Flags: HW
LayerCount: 2
Fore
SplineSet
0 900 m 25
 0 600 l 25
 350 600 l 25
 50 0 l 25
 350 0 l 29
 800 900 l 29
 0 900 l 25
EndSplineSet
EndChar

StartChar: six
Encoding: 54 54 145
Width: 750
VWidth: 0
Flags: HW
LayerCount: 2
Fore
SplineSet
0 300 m 4
 0 100 150 0 350 0 c 0
 550 0 700 100 700 300 c 0
 700 358.578947142 687.131901069 408.579161664 663.90836883 450.000643565 c 1
 663.90836883 450.000643565 624 550 352 550 c 0
 324.143223446 550 300 566 300.062496223 597.82506881 c 1
 300.021035468 598.549639086 300 599.274819543 300 600 c 0
 300 625 325 650 350 650 c 0
 650 650 l 1
 650 900 l 17
 350 900 l 0
 150 900 0 800 0 600 c 4
 0 300 l 4
350 250 m 0
 325 250 300 275 300 300 c 0
 300 300.725161109 300.021034345 301.450322217 300.062492904 302.174873194 c 1
 300 326 331.970703125 350 349 350 c 0
 366.029296875 350 400 328 399.937503777 302.17493119 c 1
 399.978964532 301.450360914 400 300.725180457 400 300 c 0
 400 275 375 250 350 250 c 0
EndSplineSet
EndChar

StartChar: aring
Encoding: 229 229 146
Width: 725
VWidth: 0
Flags: HW
LayerCount: 2
Fore
SplineSet
350 900 m 0
 150 900 0 800 0 600 c 0
 0 541.421052858 12.8680989312 491.420838336 36.0916311698 449.999356435 c 1
 12.8680989312 408.577948144 4.4408920985e-14 358.578089052 0 300 c 0
 0 100 150 0 350 0 c 0
 550 0 700 100 700 300 c 0
 700 358.578947142 687.131901069 408.579161664 663.90836883 450.000643565 c 1
 663.90836883 450.000643565 624 550 352 550 c 4
 324.143223446 550 300 566 300.062496223 597.82506881 c 1
 300.021035468 598.549639086 300 599.274819543 300 600 c 0
 300 625 325 650 350 650 c 0
 650 650 l 1
 650 900 l 17
 350 900 l 0
350 250 m 0
 325 250 300 275 300 300 c 0
 300 300.725161109 300.021034345 301.450322217 300.062492904 302.174873194 c 1
 300 326 331.970703125 350 349 350 c 0
 366.029296875 350 400 328 399.937503777 302.17493119 c 1
 399.978964532 301.450360914 400 300.725180457 400 300 c 0
 400 275 375 250 350 250 c 0
EndSplineSet
EndChar

StartChar: Q
Encoding: 81 81 147
Width: 950
VWidth: 0
Flags: W
HStem: 0 350<392.404 507.596> 550 350<392.404 507.596>
LayerCount: 2
Fore
SplineSet
450 250 m 0
 250 250 250 650 450 650 c 0
 650 650 650 250 450 250 c 0
844.38191493 222.472340279 m 1
 986.929197672 488.988118422 855.468559362 900 450 900 c 0
 -150 900 -150 0 450 0 c 2
 900 0 l 1
 844.38191493 222.472340279 l 1
EndSplineSet
EndChar

StartChar: ae
Encoding: 230 230 148
Width: 925
VWidth: 0
Flags: W
HStem: 0 350<392.404 507.596> 550 350<392.404 507.596>
LayerCount: 2
Fore
SplineSet
500 400 m 29
 600 0 l 29
 900 0 l 29
 800 400 l 29
 500 400 l 29
450 250 m 0
 250 250 250 650 450 650 c 0
 650 650 650 250 450 250 c 0
450 0 m 1
 1050 0 1050 900 450 900 c 0
 -150 900 -150 0 450 0 c 1
EndSplineSet
EndChar

StartChar: ccedilla
Encoding: 231 231 149
Width: 925
VWidth: 0
Flags: HW
HStem: 0 350<392.404 507.596> 550 350<392.404 507.596>
LayerCount: 2
Fore
SplineSet
550 200 m 29
 600 0 l 25
 900 0 l 25
 800 400 l 25
 550 200 l 29
450 250 m 0
 250 250 250 650 450 650 c 0
 650 650 650 250 450 250 c 0
450 0 m 1
 1050 0 1050 900 450 900 c 0
 -150 900 -150 0 450 0 c 1
EndSplineSet
EndChar

StartChar: egrave
Encoding: 232 232 150
Width: 925
VWidth: 0
Flags: HW
HStem: 0 350<392.404 507.596> 550 350<392.404 507.596>
LayerCount: 2
Fore
SplineSet
550 200 m 25
 450 0 l 29
 900 0 l 25
 800 400 l 25
 550 200 l 25
450 250 m 0
 250 250 250 650 450 650 c 0
 650 650 650 250 450 250 c 0
450 0 m 1
 1050 0 1050 900 450 900 c 0
 -150 900 -150 0 450 0 c 1
EndSplineSet
EndChar

StartChar: eacute
Encoding: 233 233 151
Width: 925
VWidth: 0
Flags: HW
HStem: 0 350<392.404 507.596> 550 350<392.404 507.596>
LayerCount: 2
Fore
SplineSet
450 250 m 0
 250 250 250 650 450 650 c 0
 650 650 650 250 450 250 c 0
844.38191493 222.472340279 m 1
 986.929197672 488.988118422 855.468559362 900 450 900 c 0
 -150 900 -150 0 450 0 c 2
 900 0 l 1
 844.38191493 222.472340279 l 1
EndSplineSet
EndChar

StartChar: edieresis
Encoding: 235 235 152
Width: 725
VWidth: 0
Flags: HW
LayerCount: 2
Fore
SplineSet
400 0 m 0
 0 0 l 0
 0 300 l 0
 400 300 l 4
 400 325 375 350 350 350 c 0
 275 350 l 0
 125 350 0 475 0 625 c 0
 0 775 100 900 300 900 c 1
 700 900 l 0
 700 600 l 0
 300 600 l 0
 300 575 325 550 350 550 c 0
 425 550 l 0
 575 550 700 425 700 275 c 0
 700 124.99609375 600 0 400 0 c 0
EndSplineSet
EndChar

StartChar: igrave
Encoding: 236 236 153
Width: 725
VWidth: 0
Flags: HW
LayerCount: 2
Fore
SplineSet
400 0 m 0
 0 0 l 0
 0 250 l 0
 350 250 l 4
 350 275 325 300 300 300 c 4
 275 300 l 0
 125 300 0 325 0 475 c 0
 0 625 100 700 300 700 c 1
 700 700 l 0
 700 450 l 0
 350 450 l 0
 350 425 375 400 400 400 c 0
 425 400 l 0
 575 400 700 375 700 225 c 0
 700 74.99609375 600 0 400 0 c 0
EndSplineSet
EndChar

StartChar: iacute
Encoding: 237 237 154
Width: 725
VWidth: 0
Flags: HW
LayerCount: 2
Fore
SplineSet
400 0 m 0
 125 0 l 0
 0 250 l 0
 400 250 l 0
 375 300 l 5
 150 300 l 2
 100 300 0 350 0 450 c 0
 0 625 150 700 300 700 c 1
 575 700 l 0
 700 450 l 0
 300 450 l 0
 325 400 l 1
 550 400 l 2
 600 400 700 350 700 250 c 0
 700 75 550 0 400 0 c 0
EndSplineSet
EndChar

StartChar: idieresis
Encoding: 239 239 155
Width: 1125
VWidth: 0
Flags: HW
LayerCount: 2
Fore
SplineSet
1100 350 m 6
 1100 150 950 0 750 0 c 4
 674.384765625 0 605.916992188 21.44140625 550 58.9189453125 c 5
 494.083007812 21.44140625 425.615234375 0 350 0 c 4
 150 0 0 150 0 350 c 6
 0 700 l 5
 302 700 l 5
 300 350 l 6
 300 325 325 300 350 300 c 4
 375 300 400 325 400 350 c 6
 400 700 l 5
 702 700 l 5
 702 700 l 5
 700 350 l 6
 700 325 725 300 750 300 c 4
 775 300 800 325 800 350 c 6
 800 700 l 5
 1098 700 l 5
 1100 350 l 6
EndSplineSet
EndChar

StartChar: eth
Encoding: 240 240 156
Width: 1075
VWidth: 0
Flags: HW
LayerCount: 2
Fore
SplineSet
1050 350 m 2
 1050 150 900 0 700 0 c 0
 624.384765625 0 580.916992188 11.44140625 525 48.9189453125 c 1
 469.083007812 11.44140625 425.615234375 0 350 0 c 0
 150 0 0 150 0 350 c 2
 0 700 l 1
 302 700 l 1
 300 350 l 2
 300 325 325 300 350 300 c 0
 375 300 400 325 400 350 c 2
 400 700 l 1
 652 700 l 1
 652 700 l 1
 650 350 l 2
 650 325 675 300 700 300 c 0
 725 300 750 325 750 350 c 2
 750 700 l 1
 1048 700 l 1
 1050 350 l 2
EndSplineSet
EndChar

StartChar: ograve
Encoding: 242 242 157
Width: 350
VWidth: 0
Flags: HW
LayerCount: 2
Fore
SplineSet
0 900 m 25
 150 900 l 0
 250 900 300 850 300 750 c 4
 0 750 l 25
 0 900 l 25
0 700 m 25
 300 700 l 25
 300 0 l 1
 0 0 l 1
 0 700 l 25
EndSplineSet
EndChar

StartChar: oacute
Encoding: 243 243 158
Width: 500
VWidth: 0
Flags: HW
LayerCount: 2
Fore
SplineSet
150 900 m 25
 300 900 l 0
 400 900 450 850 450 750 c 4
 150 750 l 25
 150 900 l 25
150 700 m 1
 150 200 l 1
 150 200 l 1
 150 175 125 150 100 150 c 1
 0 150 l 1
 0 -150 l 1
 100 -150 l 0
 300 -150 450 0 450 200 c 1
 450 700 l 1
 150 700 l 1
 150 700 l 1
EndSplineSet
EndChar

StartChar: ocircumflex
Encoding: 244 244 159
Width: 348
VWidth: 0
Flags: HW
LayerCount: 2
Fore
SplineSet
300 850 m 1
 300 750 l 1
 0 750 l 25
 0 900 l 25
 250 900 l 1
 300 850 l 1
0 700 m 25
 300 700 l 25
 300 0 l 1
 0 0 l 1
 0 700 l 25
EndSplineSet
EndChar

StartChar: otilde
Encoding: 245 245 160
Width: 501
VWidth: 0
Flags: HW
LayerCount: 2
Fore
SplineSet
400 900 m 1
 450 850 l 1
 450 750 l 25
 150 750 l 25
 150 900 l 1
 400 900 l 1
150 700 m 1
 150 200 l 1
 150 200 l 1
 150 175 125 150 100 150 c 1
 0 150 l 1
 0 -150 l 1
 100 -150 l 0
 300 -150 450 0 450 200 c 1
 450 700 l 1
 150 700 l 1
 150 700 l 1
EndSplineSet
EndChar

StartChar: divide
Encoding: 247 247 161
Width: 750
VWidth: 0
Flags: HW
LayerCount: 2
Fore
SplineSet
0 900 m 0
 700 900 l 0
 700 600 l 0
 300 600 l 0
 300 550 l 0
 350 550 l 0
 602 550 700 500 700 275 c 0
 700 50.5666658054 550 0 350 0 c 5
 300 0 l 0
 100 0 0 100 0 300 c 0
 350 300 l 0
 375 300 400 325 400 350 c 0
 0 350 l 0
 0 600 l 0
 0 900 l 0
EndSplineSet
EndChar

StartChar: oslash
Encoding: 248 248 162
Width: 750
VWidth: 0
Flags: HW
LayerCount: 2
Fore
SplineSet
700 150 m 1
 700 75 625 0 550 0 c 1
 150 0 l 0
 75 0 0 75 -0 150 c 5
 0 300 l 0
 350 300 l 0
 375 300 400 325 400 350 c 0
 0 350 l 0
 0 600 l 0
 0 900 l 0
 700 900 l 0
 700 600 l 0
 300 600 l 0
 300 550 l 0
 550 550 l 0
 625 550 700 475 700 400 c 0
 700 150 l 1
EndSplineSet
EndChar

StartChar: ugrave
Encoding: 249 249 163
Width: 750
VWidth: 0
Flags: HW
LayerCount: 2
Fore
SplineSet
700 350 m 2
 700 150 550 0 350 0 c 4
 0 0 l 1
 0 300 l 0
 350 300 l 0
 375 300 400 325 400 350 c 0
 0 350 l 1
 0 900 l 1
 700 900 l 0
 700 600 l 0
 300 600 l 0
 300 550 l 0
 700 550 l 1
 700 350 l 2
EndSplineSet
EndChar
